<?xml version="1.0" standalone="no"?>
<!DOCTYPE svg PUBLIC "-//W3C//DTD SVG 20010904//EN"
 "http://www.w3.org/TR/2001/REC-SVG-20010904/DTD/svg10.dtd">
<svg version="1.0" xmlns="http://www.w3.org/2000/svg"
 width="512.000000pt" height="512.000000pt" viewBox="0 0 512.000000 512.000000"
 preserveAspectRatio="xMidYMid meet">

<g transform="translate(0.000000,512.000000) scale(0.100000,-0.100000)"
fill="#000000" stroke="none">
<path d="M0 2560 l0 -2560 2560 0 2560 0 0 2560 0 2560 -2560 0 -2560 0 0
-2560z m3750 2167 c-7 -45 -13 -83 -14 -85 -2 -1 -23 28 -48 66 l-45 67 31 63
30 62 28 -46 c29 -45 29 -46 18 -127z m-575 -34 c11 -14 21 -15 99 -5 85 11
94 10 284 -28 279 -56 257 -47 189 -81 -44 -23 -57 -34 -53 -47 3 -9 21 -84
41 -166 32 -134 34 -150 20 -166 -21 -23 -19 -35 10 -50 14 -7 23 -15 20 -18
-2 -3 -11 1 -20 8 -9 7 -18 11 -20 8 -3 -3 6 -11 20 -18 15 -8 23 -20 21 -29
-11 -37 -47 -253 -44 -263 2 -5 16 56 30 137 30 164 45 192 116 213 20 6 63
18 95 27 62 18 77 36 25 30 -18 -2 -62 -7 -98 -10 l-65 -5 100 65 100 64 3
-60 c3 -58 6 -63 137 -256 74 -109 133 -199 131 -200 -1 -2 -24 1 -50 6 l-47
9 -26 -40 -26 -39 -48 47 -48 47 -153 -53 c-142 -49 -208 -79 -148 -66 14 3
108 7 210 11 171 5 188 4 220 -15 37 -20 34 -28 -3 -9 -22 12 -22 12 -3 -10
20 -22 20 -22 -7 -76 -23 -47 -31 -55 -68 -65 -23 -6 -53 -16 -66 -21 -19 -7
-24 -6 -20 3 2 7 13 12 23 10 13 -2 15 0 7 6 -9 6 3 29 47 86 33 43 60 81 60
84 0 9 -12 -5 -90 -108 -39 -52 -79 -99 -88 -104 -16 -9 -194 -50 -270 -63
-20 -3 -41 1 -56 11 -22 14 -24 14 -21 -2 1 -9 -3 -24 -9 -32 -6 -8 -1 -6 12
4 25 22 15 27 113 -59 25 -22 59 -51 75 -65 16 -14 37 -36 47 -50 l19 -25 -17
28 c-9 15 -13 32 -10 37 10 16 62 40 70 32 5 -4 5 -1 1 6 -8 13 -35 3 -68 -26
-10 -8 -18 -11 -18 -6 0 10 10 17 85 58 28 15 42 21 33 13 -10 -7 -15 -16 -12
-19 5 -6 -34 -78 -43 -78 -2 0 -1 5 3 12 4 7 3 8 -5 4 -6 -4 -9 -11 -6 -16 3
-5 0 -20 -6 -34 -11 -24 -47 -34 -168 -49 -9 -1 -38 38 -72 95 l-58 96 15 57
c8 31 14 58 12 60 -2 2 -34 17 -72 34 -39 18 -66 35 -60 40 29 25 224 139 228
132 3 -4 -3 -43 -13 -87 -10 -43 -22 -96 -25 -117 l-7 -39 65 53 c36 29 66 56
66 61 0 4 -16 32 -35 63 -20 30 -39 63 -42 73 -4 9 -69 110 -145 224 -130 195
-139 213 -164 305 -15 54 -31 102 -35 107 -7 8 -168 -5 -258 -21 -27 -5 -33
-3 -29 8 22 58 21 59 -20 76 -39 15 -40 16 -52 89 -7 41 -10 78 -6 82 22 21
112 91 120 91 5 1 14 -6 21 -16z m712 -165 c35 -34 63 -66 63 -70 0 -9 -162
-219 -166 -215 -5 5 29 347 35 347 3 0 34 -28 68 -62z m-1177 -59 c179 -6 327
-13 329 -14 2 -2 -44 -79 -102 -171 l-106 -167 -347 -169 c-191 -92 -348 -167
-350 -165 -3 4 -153 431 -156 446 -2 7 64 69 147 138 l149 124 56 -6 c30 -3
201 -10 380 -16z m464 -206 l66 -82 0 -234 c0 -129 -3 -282 -7 -342 l-6 -108
-19 38 -20 37 -54 -78 c-40 -58 -54 -87 -54 -113 -1 -20 -7 -196 -14 -391 -11
-289 -11 -369 -1 -430 7 -41 18 -114 25 -162 8 -55 17 -88 24 -88 7 0 58 15
114 34 l103 35 77 -91 c42 -50 80 -102 84 -117 3 -14 16 -127 28 -251 l22
-225 -52 -330 c-28 -181 -53 -331 -55 -333 -2 -2 -626 540 -788 684 l-37 34
175 212 c97 116 174 215 173 219 -2 3 -130 113 -285 243 l-282 237 95 197 c53
108 108 221 125 251 16 30 27 56 26 58 -2 1 -78 -81 -169 -185 -92 -103 -181
-201 -200 -218 -42 -40 -658 -497 -663 -493 -1 2 -8 108 -15 234 l-13 230 115
290 115 290 163 228 c89 126 166 225 170 220 5 -4 115 -136 245 -293 131 -157
241 -286 246 -288 4 -2 -35 103 -87 233 -53 130 -93 242 -90 248 2 7 83 104
180 217 156 182 447 474 467 467 4 -1 37 -39 73 -84z m-1171 -289 c58 -93 109
-177 112 -185 4 -11 -56 -57 -220 -168 -191 -129 -223 -148 -214 -124 47 121
114 328 155 480 26 101 51 179 55 175 3 -4 54 -84 112 -178z m1381 -140 l97
-232 -38 -98 -37 -98 -28 134 c-15 74 -45 225 -68 335 -22 110 -43 211 -46
225 -4 22 -3 21 9 -5 8 -16 58 -134 111 -261z m395 -165 c17 -28 31 -53 31
-57 0 -4 -24 -26 -54 -49 l-53 -42 20 100 c12 54 22 99 23 99 0 0 15 -23 33
-51z m189 -166 c-23 -55 -27 -57 -122 -42 -81 12 -97 19 -58 25 16 3 184 41
189 43 2 1 -3 -11 -9 -26z m-1456 -1038 c118 -143 217 -265 221 -271 9 -15
-313 -668 -323 -657 -29 30 -480 739 -476 748 3 10 112 160 299 414 32 44 41
51 52 40 7 -8 109 -131 227 -274z m-532 -555 c379 -344 415 -377 385 -362
-107 54 -1209 572 -1211 569 -2 -2 233 -145 522 -317 l526 -313 -48 -29 c-560
-333 -804 -481 -801 -484 2 -3 98 44 213 104 359 186 844 434 844 430 0 -2
-11 -54 -24 -115 l-24 -113 90 -64 c49 -35 89 -67 89 -71 0 -3 -49 -44 -108
-91 -60 -47 -109 -88 -111 -92 -1 -4 51 -27 115 -52 65 -24 142 -54 172 -66
l54 -21 -204 -113 -204 -113 -385 42 c-212 23 -389 46 -394 51 -30 29 -159
295 -220 455 l-73 190 -22 360 c-12 198 -24 376 -27 395 l-5 35 233 66 c220
62 234 65 253 49 11 -9 175 -158 365 -330z m956 -648 c499 -243 512 -249 671
-291 l163 -44 -47 -86 c-25 -47 -47 -87 -47 -88 -1 -1 -150 -27 -331 -58 -303
-52 -578 -83 -596 -66 -4 3 -71 182 -149 396 -78 215 -150 411 -160 438 -10
26 -17 47 -15 47 1 0 231 -112 511 -248z m-231 -712 c-19 -38 -39 -70 -43 -70
-14 0 -371 104 -367 108 1 2 97 9 211 16 115 7 215 14 222 15 7 0 -2 -27 -23
-69z m-285 -46 c69 -35 120 -63 115 -62 -71 20 -198 76 -225 99 -19 16 -30 29
-25 28 6 0 66 -29 135 -65z m-116 -16 c-18 -29 -196 -253 -203 -256 -8 -3 -96
157 -89 162 5 5 282 105 291 105 5 1 5 -5 1 -11z m-874 -68 c234 -11 454 -20
489 -21 78 -3 80 -2 -121 -104 -167 -86 -146 -85 -200 -8 -13 18 -27 33 -33
33 -5 0 -140 -22 -300 -50 -159 -27 -297 -50 -305 -50 -15 0 -152 104 -158
120 -2 4 23 28 55 54 69 55 12 52 573 26z"/>
<path d="M3694 3424 c3 -16 10 -58 17 -94 17 -100 14 -99 69 -45 l49 48 -51
46 c-28 25 -60 52 -71 60 -18 13 -19 12 -13 -15z m82 -55 l42 -37 -42 -41 -42
-41 -15 90 c-17 101 -21 99 57 29z"/>
<path d="M3855 3470 c17 -4 44 -8 60 -8 25 0 24 2 -10 9 -51 10 -92 10 -50 -1z"/>
</g>
</svg>
